<?xml version="1.0" standalone="no"?>
<!DOCTYPE svg PUBLIC "-//W3C//DTD SVG 1.1//EN" "http://www.w3.org/Graphics/SVG/1.1/DTD/svg11.dtd" >
<svg xmlns="http://www.w3.org/2000/svg">
<metadata>
Created by FontForge 20120731 at Fri Dec 30 23:10:23 2016
 By admin
</metadata>
<defs>
<font id="iconfont" horiz-adv-x="1024" >
  <font-face 
    font-family="iconfont"
    font-weight="500"
    font-stretch="normal"
    units-per-em="1024"
    panose-1="2 0 6 3 0 0 0 0 0 0"
    ascent="896"
    descent="-128"
    x-height="792"
    bbox="-0.5625 -222.779 1281.52 896.923"
    underline-thickness="0"
    underline-position="0"
    unicode-range="U+0078-E9A7"
  />
<missing-glyph 
 />
    <glyph glyph-name=".notdef" 
 />
    <glyph glyph-name=".notdef" 
 />
    <glyph glyph-name=".null" horiz-adv-x="0" 
 />
    <glyph glyph-name="nonmarkingreturn" horiz-adv-x="341" 
 />
    <glyph glyph-name="x" unicode="x" horiz-adv-x="1001" 
d="M281 543q-27 -1 -53 -1h-83q-18 0 -36.5 -6t-32.5 -18.5t-23 -32t-9 -45.5v-76h912v41q0 16 -0.5 30t-0.5 18q0 13 -5 29t-17 29.5t-31.5 22.5t-49.5 9h-133v-97h-438v97zM955 310v-52q0 -23 0.5 -52t0.5 -58t-10.5 -47.5t-26 -30t-33 -16t-31.5 -4.5q-14 -1 -29.5 -0.5
t-29.5 0.5h-32l-45 128h-439l-44 -128h-29h-34q-20 0 -45 1q-25 0 -41 9.5t-25.5 23t-13.5 29.5t-4 30v167h911zM163 247q-12 0 -21 -8.5t-9 -21.5t9 -21.5t21 -8.5q13 0 22 8.5t9 21.5t-9 21.5t-22 8.5zM316 123q-8 -26 -14 -48q-5 -19 -10.5 -37t-7.5 -25t-3 -15t1 -14.5
t9.5 -10.5t21.5 -4h37h67h81h80h64h36q23 0 34 12t2 38q-5 13 -9.5 30.5t-9.5 34.5q-5 19 -11 39h-368zM336 498v228q0 11 2.5 23t10 21.5t20.5 15.5t34 6h188q31 0 51.5 -14.5t20.5 -52.5v-227h-327z" />
    <glyph glyph-name="dingwei" unicode="&#xe600;" 
d="M512.5 748q-91.5 0 -169 -45t-122.5 -122.5t-45 -168.5q0 -52 34.5 -128.5t84 -149.5t99 -137.5t84 -105t34.5 -39.5q14 16 36.5 42t80.5 100.5t102.5 141.5t81 145.5t36.5 130.5q0 91 -45 168.5t-122.5 122.5t-169 45zM714 412.5q0 -83.5 -59 -142.5t-142.5 -59t-143 59
t-59.5 142.5t59.5 142.5t143 59t142.5 -59t59 -142.5z" />
    <glyph glyph-name="sousuo" unicode="&#xe604;" 
d="M961 -104l-272 272q86 100 86 231q0 97 -47.5 178.5t-129.5 129.5t-178.5 48t-178.5 -48t-129.5 -129.5t-47.5 -178t47.5 -178.5t129.5 -129.5t178 -47.5q115 0 208 67l275 -274zM106 399.5q0 129.5 92 221.5t221.5 92t221.5 -92t92 -221.5t-92 -221.5t-221.5 -92
t-221.5 92t-92 221.5z" />
    <glyph glyph-name="jiantouyou" unicode="&#xe662;" 
d="M228 -153l55 -55l509 508l-509 509l-55 -55l454 -454zM228 -153z" />
    <glyph glyph-name="jiantouxia" unicode="&#xe6a1;" 
d="M964 497l-60 59l-392 -392l-392 392l-60 -59l452 -453z" />
    <glyph glyph-name="icon" unicode="&#xe64c;" 
d="M512 -141q-92 0 -175.5 35.5t-143.5 96t-95.5 144t-35.5 175t35.5 174.5t95.5 143.5t143.5 96t175 35.5t175 -35.5t143.5 -96t96 -143.5t36 -174.5t-36 -175t-96 -144t-143.5 -96t-174.5 -35.5v0zM763 467l-45 45q-6 6 -15 6t-15 -6l-268 -269l-128 129q-6 6 -15 6
t-15 -6l-45 -45q-6 -6 -6 -15t6 -15l142 -143h0.5t0.5 -1l30 -30l8 -8v0l7 -6q6 -7 14.5 -7t14.5 7l329 328q6 6 6 15t-6 15v0z" />
    <glyph glyph-name="weixin" unicode="&#xe603;" 
d="M669 495q14 0 30 -2q-20 95 -110.5 157.5t-206.5 62.5q-130 0 -222 -77.5t-92 -189.5q0 -124 126 -212l-31 -94l109 55q80 -16 110 -16q14 0 30 1q-10 33 -10 66q0 103 77.5 176t189.5 73zM500 580q18 0 28.5 -11t10.5 -28.5t-10.5 -28.5t-28.5 -11t-32.5 11.5
t-14.5 28.5t14.5 28t32.5 11zM280 501q-18 0 -32.5 11.5t-14.5 28.5t14.5 28t32.5 11t29 -11t11 -28.5t-11 -28.5t-29 -11zM956 250q0 93 -80 160.5t-187 67.5q-112 0 -189.5 -67t-77.5 -161.5t77.5 -161t189.5 -66.5q31 0 94 16l86 -47l-23 78q110 83 110 181zM602 289
q-11 0 -21 10t-10 21.5t10 21.5t21 10q17 0 28.5 -9.5t11.5 -22t-11.5 -22t-28.5 -9.5zM775 289q-12 0 -21.5 10t-9.5 21.5t9.5 21.5t21.5 10q17 0 28 -9.5t11 -22t-11 -22t-28 -9.5z" />
    <glyph glyph-name="02" unicode="&#xe602;" 
d="M722 691q-67 0 -123.5 -34t-86.5 -91v0q-30 57 -86.5 91t-123.5 34q-98 0 -167.5 -68.5t-69.5 -164.5q0 -56 15 -104.5t62 -105.5q63 -78 370 -338v-1v0v0v1q308 262 370 338q47 57 62 105.5t15 104.5q0 96 -69.5 164.5t-167.5 68.5zM859 266q-59 -72 -345 -316v0l-2 -2
q-287 245 -347 318q-44 54 -57 98t-13 94q0 84 60.5 143.5t146.5 59.5q58 0 107.5 -29t76.5 -80l26 -49l26 49q27 51 76.5 80t107.5 29q86 0 146.5 -59.5t60.5 -143.5q0 -50 -13 -94t-57 -98z" />
    <glyph glyph-name="android" unicode="&#xe617;" 
d="M839.5 455q-22.5 0 -38.5 -16t-16 -39v-216q0 -23 16 -39.5t38.5 -16.5t38.5 16.5t16 39.5v216q0 23 -16 39t-38.5 16zM182.5 455q-22.5 0 -38.5 -16t-16 -39v-216q0 -23 16 -39.5t38.5 -16.5t38.5 16.5t16 39.5v216q0 23 -16 39t-38.5 16zM270 454v-395
q0 -18 12.5 -30.5t29.5 -12.5h49v-120q0 -23 16 -39.5t38.5 -16.5t38.5 16.5t16 39.5v120h84v-120q0 -23 16 -39.5t39 -16.5t38.5 16.5t15.5 39.5v120h49q18 0 30 12.5t12 30.5v395h-484zM626 658l45 65q5 7 -1.5 11.5t-11.5 -2.5l-46 -68q-48 19 -101 19t-101 -19l-46 68
q-5 7 -11 2.5t-2 -11.5l45 -65q-54 -25 -88.5 -70t-38.5 -99h484q-4 54 -38.5 99t-88.5 70zM409 556q-11 0 -19 8t-8 19t8 18.5t19 7.5t19 -7.5t8 -18.5t-8 -19t-19 -8zM617 556q-11 0 -19 8t-8 19t8 18.5t19 7.5t18.5 -7.5t7.5 -18.5t-7.5 -19t-18.5 -8z" />
    <glyph glyph-name="search" unicode="&#xe61c;" 
d="M925 -52l-137 164q-7 8 -18 9t-19 -6v0l-42 49q86 98 86 227q0 94 -46 173t-125 125t-172.5 46t-173 -46t-125.5 -125t-46 -172.5t46 -173t125.5 -125.5t172.5 -46q106 0 194 60l40 -47v-1q-8 -6 -9 -17t6 -19l137 -164q7 -8 17.5 -9t19.5 6l66 55q8 7 9 18t-6 19z
M211 391.5q0 99.5 70 170t170 70.5t170.5 -70.5t70.5 -170t-70.5 -170t-170.5 -70.5t-170 70.5t-70 170z" />
    <glyph glyph-name="llhomesearch" unicode="&#xe601;" 
d="M945 -66l-159 157q81 108 81 242q0 109 -54 201.5t-146.5 146t-201.5 53.5t-201.5 -53.5t-146.5 -146t-54 -202t54 -202t146.5 -146t201.5 -53.5q152 0 266 101l160 -157q12 -11 28 -10.5t27.5 12.5t11 29t-12.5 28zM465 2q-90 0 -166 44t-120.5 120.5t-44.5 166
t44.5 166t120.5 121t166 44.5t166 -44.5t120.5 -121t44.5 -166t-44.5 -166t-120.5 -120.5t-166 -44z" />
    <glyph glyph-name="sousuo1" unicode="&#xe618;" 
d="M126 346.5q0 93.5 46 172.5t125 125t172.5 46t172.5 -46t125 -125t46 -172.5t-46 -172.5t-125 -125t-172.5 -46t-172.5 46t-125 125t-46 172.5zM723 33l182 -183l53 53l-182 182q97 113 97 261q0 110 -54 203t-147 147t-202.5 54t-202.5 -54t-147 -147t-54 -202.5
t54 -202.5t147 -147t202 -54q143 0 254 90z" />
    <glyph glyph-name="iconfontsousuo1" unicode="&#xe610;" 
d="M746 156q-14 -19 -33 -37l220 -216l36 34zM824 389q0 -104 -49 -190.5t-133.5 -135t-185.5 -48.5q-105 2 -189.5 52.5t-131.5 135.5t-47 186q0 97 49.5 180.5t134.5 132.5t184 49t184.5 -49.5t134.5 -133t49 -179.5zM454 702q-131 0 -224 -93t-93 -226t93 -226.5
t224 -93.5q86 0 160 43t117.5 116.5t43.5 160.5t-43.5 160.5t-117.5 116t-160 42.5z" />
    <glyph glyph-name="search1" unicode="&#xe650;" 
d="M917 -103l-244 244q97 102 97 242q0 96 -47 177t-128 128t-176.5 47t-176.5 -47t-128.5 -128t-47.5 -176.5t47.5 -176.5t128.5 -128.5t176 -47.5q114 0 207 68l247 -247q10 -9 23 -9t22.5 9t9.5 22.5t-10 22.5zM418.5 89q-119.5 0 -204 84.5t-84.5 203.5t84.5 203.5
t204 84.5t203.5 -84.5t84 -203.5t-84 -203.5t-203.5 -84.5z" />
    <glyph glyph-name="pingguo" unicode="&#xe65a;" 
d="M884 449q-58 -37 -86 -95t-23.5 -115.5t40 -110.5t96.5 -81q-21 -53 -22 -56q-39 -89 -105 -161q-37 -40 -77.5 -49t-91.5 12q-41 17 -75 24q-47 9 -103 -14q-31 -13 -41 -17q-72 -26 -129 25q-54 49 -101 131q-92 161 -84 327q7 146 106 225q80 64 172 51q12 -2 23.5 -5
t28 -9t22.5 -8q13 -4 28 -10q38 -17 80 -1q68 26 102 34q65 15 134.5 -13t105.5 -84zM698 795q7 -55 -19.5 -111t-77 -91t-105.5 -31q-13 45 15.5 101t81.5 94.5t105 37.5z" />
    <glyph glyph-name="shouyezhuyetubiao04" unicode="&#xe605;" 
d="M742 323l-416 417q-9 9 -22 9t-22 -9t-9 -22t9 -22l394 -395l-394 -394q-9 -9 -9 -22t9 -22t22 -9t22 9l416 416q9 9 9 22t-9 22z" />
    <glyph glyph-name="iconfontjiantou1" unicode="&#xe62b;" 
d="M794 296l-503 503l-61 -63l441 -439l-441 -442l61 -61z" />
    <glyph glyph-name="zuojiantou" unicode="&#xe606;" 
d="M342 300l399 399q9 9 9 20.5t-8.5 20t-20.5 8.5t-20 -8l-414 -415q-1 0 -3.5 -1t-3.5 -2q-9 -9 -8 -22q-1 -13 8 -22q1 -1 3.5 -1.5t3.5 -1.5l414 -414q8 -8 20 -8t20.5 8t8.5 20t-9 20z" />
    <glyph glyph-name="iconfontxinlang" unicode="&#xe673;" 
d="M707 307q-14 3 -18 9t-1 10l3 5q1 2 3 5.5t5 14.5t4 21t-3.5 23.5t-14.5 23.5q-13 13 -34 17t-41.5 1t-39.5 -8.5t-31 -10.5l-11 -5q-9 -3 -15.5 -4t-9.5 0.5t-5 3t-1.5 6.5t1 8.5t2 11.5t2.5 13q0 14 -2 26t-9.5 25t-20.5 20t-37.5 6.5t-56.5 -11.5t-65 -33t-58 -46
t-45.5 -46.5t-31 -36t-10.5 -14.5q-19 -25 -32 -51.5t-18.5 -44t-7.5 -34.5t-1.5 -22.5t0.5 -8.5v0q5 -44 26.5 -79.5t52 -57.5t71 -37.5t78 -22.5t79.5 -10q69 -6 142.5 10.5t137 56.5t89.5 96q16 33 16.5 62t-9.5 47t-26.5 32t-30.5 20.5t-26 8.5v0zM424 17
q-99 -4 -169.5 39.5t-70.5 110.5t70 115t170 53q102 4 171.5 -34.5t69.5 -104.5q0 -67 -71 -120.5t-170 -58.5v0zM398 276q-118 -14 -118 -142v-4.5t1.5 -10.5t5 -15.5t11 -16t18.5 -13.5q60 -30 113 -18t86 54q15 20 17 50.5t-9.5 58t-44.5 45t-80 12.5v0zM364 99
q-19 -2 -32 7.5t-13 24.5q0 17 12.5 30.5t30.5 15.5q21 2 34 -8.5t13 -26.5t-13 -28.5t-32 -14.5v0zM443 166q-6 -4 -13 -3.5t-10 6.5q-4 5 -2.5 13t7.5 12q16 12 25 -2q8 -14 -7 -26v0zM772 362q8 0 14 5t8 13v3q3 30 -1.5 53t-15 35.5t-24 21t-27.5 11t-25.5 3t-19 -0.5
l-7.5 -1q-9 0 -15.5 -6.5t-6.5 -15.5t6.5 -15.5t15.5 -6.5q29 5 45.5 0t23.5 -18t8.5 -26t0.5 -23l-2 -10q0 -9 6.5 -15.5t15.5 -6.5v0zM756 620q-46 11 -109 -2q-1 0 -2 -0.5l-1 -0.5h-1q-10 -3 -16.5 -12t-6.5 -19q0 -14 9.5 -23.5t22.5 -9.5q17 3 29 7q4 1 15.5 2
t30.5 -3.5t38 -12t39.5 -24.5t33.5 -40q25 -56 10 -107q-6 -15 -6 -31q0 -13 9 -20.5t22.5 -7.5t21 5t9.5 22v0q17 52 13 94t-18 73t-39 54t-51 36t-53 20v0zM756 620z" />
    <glyph glyph-name="arrowleft" unicode="&#xe607;" 
d="M359 288l383 384h-76l-384 -384l384 -383h76z" />
    <glyph glyph-name="weixin1" unicode="&#xe64f;" 
d="M683 476q16 0 31 -2q-18 110 -114.5 184.5t-225.5 74.5q-93 0 -171.5 -40.5t-124.5 -109.5t-46 -150q0 -68 33 -128t90 -102q-8 -41 -14.5 -76t-5.5 -34q10 4 111 62q62 -22 128 -22h15q-8 32 -8 64q0 116 88.5 197.5t213.5 81.5zM509 574q18 0 30.5 -12.5t12.5 -30.5
t-12.5 -30.5t-30.5 -12.5t-30.5 12.5t-12.5 30.5t12.5 30.5t30.5 12.5zM246 488q-18 0 -30.5 12.5t-12.5 30.5t12.5 30.5t30.5 12.5t30.5 -12.5t12.5 -30.5t-12.5 -30.5t-30.5 -12.5zM992 207q0 104 -86 177t-207.5 73t-207.5 -73.5t-86 -177t86 -177t208 -73.5q64 0 123 23
q78 -41 83 -43q1 -1 -3.5 23t-12.5 57q48 35 75.5 84.5t27.5 106.5zM588.5 262q-17.5 0 -30 12.5t-12.5 30t12.5 30t30 12.5t30 -12.5t12.5 -30t-12.5 -30t-30 -12.5zM802.5 262q-17.5 0 -30 12.5t-12.5 30t12.5 30t30 12.5t30 -12.5t12.5 -30t-12.5 -30t-30 -12.5z" />
    <glyph glyph-name="dingwei1" unicode="&#xe608;" 
d="M515 -167q-21 0 -79.5 72t-118.5 167.5t-107 198t-47 154.5q0 97 47 178.5t128.5 129t177 47.5t177 -47.5t128.5 -129t47 -178.5q0 -51 -47 -153.5t-107.5 -198t-119 -168t-79.5 -72.5zM515.5 740q-129.5 0 -221 -92t-91.5 -221q0 -47 41.5 -138.5t95 -178t105 -151.5
t70.5 -65t70.5 65.5t105 152t95 178t41.5 137.5q0 129 -91 221t-220.5 92zM515.5 277q-60.5 0 -104 43.5t-43.5 104.5t43.5 104.5t104 43.5t103.5 -43.5t43 -104.5t-43 -104.5t-103.5 -43.5zM515.5 521q-38.5 0 -66 -27.5t-27.5 -66.5t27.5 -66.5t66 -27.5t66 27.5
t27.5 66.5t-27.5 66.5t-66 27.5z" />
    <glyph glyph-name="wendang" unicode="&#xe6b7;" 
d="M887 515v-45v-45v-478q0 -29 -20 -49t-48 -20h-614q-28 0 -48 20t-20 49v705q0 28 20 48t48 20h387h45h38q14 5 23 -5l183 -183q7 -7 6 -17zM660 447q-10 0 -16.5 7t-6.5 16v205h-45h-364q-19 0 -32.5 -13.5t-13.5 -32.5v-660q0 -18 13.5 -31.5t32.5 -13.5h568
q19 0 32.5 13.5t13.5 31.5v456v22h-182zM683 666v-173h159v14zM728 83h-432q-10 0 -16.5 7t-6.5 16t6.5 16t16.5 7h432q10 0 16.5 -7t6.5 -16t-6.5 -16t-16.5 -7zM728 220h-432q-10 0 -16.5 6.5t-6.5 16t6.5 16t16.5 6.5h432q10 0 16.5 -6.5t6.5 -16t-6.5 -16t-16.5 -6.5z
M728 356h-432q-10 0 -16.5 7t-6.5 16t6.5 16t16.5 7h432q10 0 16.5 -7t6.5 -16t-6.5 -16t-16.5 -7zM546 493h-250q-10 0 -16.5 6.5t-6.5 16t6.5 16t16.5 6.5h250q10 0 16.5 -6.5t6.5 -16t-6.5 -16t-16.5 -6.5z" />
    <glyph glyph-name="weixin2" unicode="&#xe69e;" 
d="M693 465q15 0 35 -2q-23 109 -127.5 181.5t-238.5 72.5q-98 0 -181 -40.5t-132 -111.5t-49 -156q0 -143 145 -245l-36 -109l127 64q6 -2 25 -5.5t27 -5t22.5 -4t26.5 -3t25 -0.5q16 0 34 1q-11 38 -11 76q0 119 89.5 203t218.5 84zM498 563q21 0 33.5 -12.5t12.5 -33
t-12.5 -33t-33.5 -12.5t-37.5 13t-16.5 32.5t16.5 32.5t37.5 13zM245 472q-22 0 -38.5 13t-16.5 32.5t16.5 32.5t38.5 13q20 0 32.5 -12.5t12.5 -33t-12.5 -33t-32.5 -12.5zM1024 182q0 71 -43 132t-113.5 96t-151.5 35q-129 0 -218.5 -77t-89.5 -186t89.5 -186t218.5 -77
q37 0 109 18l99 -54l-27 91q127 95 127 208zM616 228q-13 0 -24.5 11t-11.5 24.5t11.5 25t24.5 11.5q20 0 33 -11t13 -25.5t-13 -25t-33 -10.5zM815 228q-13 0 -24.5 11t-11.5 24.5t11.5 25t24.5 11.5q20 0 33 -11t13 -25t-13 -25t-33 -11z" />
    <glyph glyph-name="yanjing" unicode="&#xe61a;" 
d="M990 323q-222 275 -473 275q-58 0 -116 -15.5t-102.5 -37t-89.5 -53t-73 -56.5t-56 -55t-36 -39.5t-15 -19.5l-12 -16l12 -16q228 -278 479 -278q79 0 158 29t132 65.5t101 82.5t65.5 68t25.5 34l12 17zM514 100q-84 0 -144 60t-60 144.5t60 144.5t144 60t144 -60
t60 -144q0 -85 -59.5 -145t-144.5 -60zM85 306q18 21 40.5 44t59 55.5t84.5 62t97 47.5q-50 -35 -79.5 -90.5t-29.5 -120.5q0 -66 31.5 -123.5t85.5 -92.5q-148 53 -289 218zM668 98q48 36 76 90t28 117q0 65 -30.5 121.5t-82.5 91.5q142 -52 276 -212q-17 -21 -38 -43.5
t-55.5 -54.5t-80 -61.5t-93.5 -48.5zM514 305zM457 304.5q0 23.5 17 40t40.5 16.5t40 -16.5t16.5 -40t-16.5 -40t-40 -16.5t-40.5 16.5t-17 40z" />
    <glyph glyph-name="dingwei2" unicode="&#xe64d;" 
d="M532 733q-128 0 -218.5 -88t-90.5 -212q0 -76 31 -166t69 -157.5t88 -137t72 -95.5t36 -42l13 -14l12 14q15 16 37 42t71.5 96t88 137.5t69 157t30.5 165.5q0 124 -90.5 212t-217.5 88v0zM532 -129q-24 28 -50.5 61.5t-69.5 97.5t-75 125.5t-56.5 137t-24.5 140.5
q0 111 81 189.5t195 78.5t194.5 -78.5t80.5 -189.5q0 -64 -24 -139.5t-56 -137t-75 -126t-69.5 -98t-50.5 -61.5v0zM535 544q-48 0 -83 -33.5t-35 -81t35 -81.5t83.5 -34t83 34t34.5 81.5t-34.5 81t-83.5 33.5v0zM535 347q-35 0 -59.5 24t-24.5 58t24.5 58.5t60 24.5
t60 -24.5t24.5 -58.5t-24.5 -58t-60.5 -24v0z" />
    <glyph glyph-name="youjiantou" unicode="&#xe609;" 
d="M283 -193q14 0 24 10l458 459q10 10 10 24t-10 24l-458 459q-10 10 -24 10t-24 -10t-10 -24.5t10 -24.5l434 -434l-434 -434q-10 -10 -10 -24.5t10 -24.5t24 -10z" />
    <glyph glyph-name="dingwei3" unicode="&#xe60a;" 
d="M531 -98q158 223 231 363v0q42 69 42 150q0 122 -86 207.5t-207 85.5t-207 -85.5t-86 -207.5q0 -81 42 -150v0q10 -23 28 -56.5t75 -122.5t129 -185q0 -1 1 -2h1l0.5 -0.5l0.5 -0.5v0l0.5 -0.5l0.5 -0.5v0l2 -2h1q1 -1 3 -1v-1v0h1.5h0.5l1 -0.5t1.5 -0.5h0.5h0.5h1h0.5
h2v0v0v0v0h2v0v0h1h0.5h0.5h0.5t1.5 1h1h1h1v0.5v0.5h2v0l1 1h1l2 2v0q1 0 1 1h0.5t0.5 1v0l1 1l2 2v0zM300 291q-34 58 -34 124q0 102 71.5 173.5t173 71.5t173.5 -71.5t72 -173.5q0 -66 -34 -124q-1 -1 -2 -3q-63 -123 -210 -331q-66 91 -119.5 176.5t-67.5 112.5t-21 41
l-2 4v0zM511 238q73 0 125.5 52t52.5 125.5t-52.5 125.5t-126 52t-125.5 -52t-52 -125.5t52 -125.5t126 -52v0zM511 545q54 0 92 -38t38 -91.5t-38 -91.5t-92 -38t-92 38t-38 91.5t38 91.5t92 38v0zM511 545z" />
    <glyph glyph-name="apple" unicode="&#xe60b;" 
d="M791 268q0 36 12 70t24.5 53.5t34 39.5t26 22.5t14.5 9.5q-21 31 -49 52.5t-55.5 31t-46.5 13.5t-36 4q-35 4 -75 -7.5t-73 -25.5t-48 -14q-17 0 -75 23t-94 22q-65 -1 -121.5 -35.5t-90.5 -92.5q-32 -57 -40 -129t5.5 -141.5t39.5 -133t60 -112.5q20 -30 34.5 -48.5
t36 -40t44 -32t46.5 -9.5q30 1 78.5 21.5t89.5 20.5q40 0 88 -20.5t81 -20.5q25 1 47 11t42.5 30.5t34 37.5t33.5 47q44 65 71 146v0q-8 3 -18 8t-33 22.5t-40.5 39t-31.5 58t-15 79.5zM662.5 648.5q28.5 34.5 43.5 77.5t10 86q-39 -2 -81 -23.5t-70 -54.5
q-27 -31 -43.5 -74t-10.5 -84q41 -3 82 17.5t69.5 55z" />
    <glyph glyph-name="weixin3" unicode="&#xe60c;" horiz-adv-x="1258" 
d="M319 497q-26 0 -45.5 15.5t-19.5 38.5t19.5 38t44.5 15q24 0 38.5 -14.5t14.5 -38.5q1 -24 -13.5 -39t-38.5 -15zM618 604q24 0 38.5 -14.5t14.5 -38.5t-14.5 -39t-38.5 -15q-25 0 -45 15.5t-20 38.5t20 38t45 15zM848 488q23 0 41 -2q-28 129 -151 214.5t-281 85.5
q-116 0 -214.5 -48t-156 -132t-57.5 -184q0 -169 172 -289l-43 -129l150 75q8 -1 29.5 -5.5t31.5 -6.5t27 -4.5t31.5 -3.5t29.5 -1q20 0 40 2q-13 44 -13 89q0 93 48 170.5t132 123t184 45.5v0zM992 208q-16 0 -29 13.5t-13 29.5t13 29.5t29 13.5q24 0 39 -13t15 -30
t-15 -30t-39 -13zM757 208q-16 0 -29.5 13.5t-13.5 29.5t13.5 29.5t29.5 13.5q23 0 38 -13t15 -30q1 -17 -14.5 -30t-38.5 -13zM1238 154q0 84 -50.5 156t-134 113.5t-178.5 41.5q-100 0 -184 -41.5t-132 -113t-48 -156t48 -156t132 -113t184 -41.5q41 0 128 22l118 -65
l-32 107q68 52 108.5 114.5t40.5 131.5z" />
    <glyph glyph-name="weibiaoti1" unicode="&#xe622;" 
d="M512 -124l-9 9q-23 23 -88 73q-58 44 -104 80q-34 27 -52.5 42t-52.5 45t-53.5 51.5t-44.5 54.5t-39 62t-24 65.5t-10 72.5q0 65 24 120t63 91t87 56.5t97 20.5q124 0 206 -111q82 111 206 111q49 0 97 -20.5t87 -56t63 -90.5t24 -119q0 -38 -11 -76.5t-26.5 -69.5
t-42 -64.5t-47 -56t-53.5 -51t-50 -42t-46 -35.5q-21 -16 -58 -44q-103 -78 -134 -109zM306 694q-44 0 -88 -18.5t-79.5 -51.5t-57.5 -83.5t-22 -109.5q0 -34 10 -68t23 -61.5t37.5 -59t43.5 -52t51.5 -49.5t50.5 -43.5t51 -40.5q45 -36 104 -80q60 -46 82 -67
q29 28 128 103q36 27 58 44q46 35 78.5 62t70.5 66.5t61.5 75t40 81t16.5 91.5q0 59 -22 109t-57.5 83t-79 51.5t-88.5 18.5q-58 0 -108.5 -29.5t-87.5 -84.5l-10 -15l-10 15q-37 55 -87.5 84t-108.5 29z" />
    <glyph glyph-name="zan" unicode="&#xe645;" 
d="M346 387q4 0 4 -3v-320q0 -3 -4 -3h-164q-4 0 -4 3v320q0 3 4 3h164zM346 420h-164q-16 0 -26.5 -10.5t-10.5 -25.5v-320q0 -15 10.5 -25.5t26.5 -10.5h164q15 0 26 10.5t11 25.5v320q0 15 -11 25.5t-26 10.5v0zM663 707q4 0 7 -1q5 -3 9 -8t11 -15t10 -20t5 -24.5
t-4 -27.5q-20 -61 -54 -103q-7 -11 -9 -25t7 -33q8 -12 24 -12h3h106q3 -1 8 -1.5t16.5 -4.5t20.5 -10t16 -17.5t7 -27.5q-1 -25 -16 -37l-15 -11l14 -13q12 -11 11 -37q-1 -13 -7 -23.5t-9.5 -14t-5.5 -4.5l-23 -9l18 -16q9 -10 8 -26q-4 -36 -19 -48l-18 -7l12 -11
q3 -6 2 -21t-9 -25q-9 -13 -31.5 -13h-106.5h-210q-17 7 -23 12q-12 22 -36 22h-2v262h43h5l4 4q3 2 13 12.5t25 29t22 32.5q32 66 42 74q1 2 7 6q30 24 60.5 65.5t36.5 91.5q3 26 15 33q4 2 10 2zM663 741q-15 0 -27 -7q-26 -16 -31 -58q-4 -39 -30.5 -76t-54.5 -59h-1
q-5 -5 -7 -6q-16 -14 -44 -72l-6 -14q-12 -23 -47 -58q-25 -1 -35 -1h-33v-330l34 1v0h6q0 -1 1 -3l1 -2l3 -5l5 -4q9 -8 31 -17l6 -3h7h211h106q40 1 59 27q19 28 14 65q19 23 23 64q2 20 -6 37q23 23 25 57q2 28 -11 49q17 22 17 51q1 41 -28.5 66t-70.5 28h-1h-108
q-2 8 3 17q37 46 59 112q12 37 -1 72t-39 59l-6 6l-8 2q-8 2 -16 2v0z" />
    <glyph glyph-name="xiangyoujiantou" unicode="&#xe6a8;" 
d="M268 800l29 29q6 6 14 6t14 -6l431 -431q6 -6 6 -14t-6 -14l-29 -29q-6 -6 -14 -6t-14 6l-431 431q-6 6 -6 14t6 14zM268 -4l431 431q6 6 14 6t14 -6l29 -29q6 -6 6 -14t-6 -14l-431 -431q-6 -6 -14 -6t-14 6l-29 29q-6 6 -6 14t6 14z" />
    <glyph glyph-name="dingshiguanbi" unicode="&#xe7ea;" 
d="M512 782q-98 0 -187.5 -38t-154 -102.5t-102.5 -154t-38 -187.5t38 -187.5t102.5 -154t154 -102.5t187.5 -38t187.5 38t154 102.5t102.5 154t38 187.5t-38 187.5t-102.5 154t-154 102.5t-187.5 38zM512 -105q-110 0 -203.5 54t-147.5 147.5t-54 203.5t54 203.5
t147.5 147.5t203.5 54t203.5 -54t147.5 -147.5t54 -203.5t-54 -203.5t-147.5 -147.5t-203.5 -54zM551 532h-78v-193v-39v-39h271v0v78h-193v193z" />
    <glyph glyph-name="zan1" unicode="&#xe652;" 
d="M857 277q2 29 -12 49q18 21 19 51q1 29 -17 50t-38.5 28.5t-42.5 9.5h-1h-1h-114h-1h-1h-1q-3 0 -4 1q-8 12 2 26q38 44 62 111q13 35 -0.5 68.5t-40.5 57.5l-5 4l-6 1q-7 2 -15 2q-13 0 -24 -6q-24 -14 -29 -53q-5 -45 -24 -83.5t-42 -55.5q-6 -5 -9 -7q-16 -13 -45 -70
l-7 -14q-2 -2 -5.5 -12.5t-7 -18t-15 -17t-28.5 -15.5q-7 -2 -13 -2q-2 0 -7 1v33h-224v-384h224v29l20 -2l54 -27h170h115q37 1 55 24q20 27 14 64q21 20 25 63q2 20 -8 37q26 22 28 57zM352 64h-160v320h160v-320zM821 348l-17 -19l15 -21q8 -12 6 -29q-1 -22 -16 -35
l-21 -17l14 -23q4 -8 3 -18q-3 -31 -16 -43l-12 -12l3 -17q4 -23 -7 -39q-9 -10 -31 -11h-114h-162l-47 24l-6 2l-6 1l-23 2v257h7q12 0 24 4q55 19 71 73q2 5 2 6l7 13q26 52 37 60q2 2 7 6q30 21 52 65t28 96q3 23 13 29q3 2 8 2q3 0 6 -1q6 -5 11.5 -11t14 -20t9 -27
t-3.5 -32q-22 -61 -56 -100l-1 -1v0q-10 -14 -12 -30.5t9 -34.5l3 -3l3 -3q10 -8 25 -8h1h1h113v0q7 0 15 -2t22 -7t23 -17.5t9 -28.5q0 -18 -11 -30z" />
    <glyph glyph-name="dingwei4" unicode="&#xe60d;" 
d="M536.5 763q-99.5 0 -183.5 -49.5t-133 -135t-49 -186.5q0 -154 254 -473q62 -77 111 -131q15 16 40 44t88 108t111 152t87.5 157t39.5 143q0 101 -49 186.5t-133 135t-183.5 49.5zM536.5 299q-56.5 0 -97 40.5t-40.5 98.5t40.5 99t97 41t97 -41t40.5 -99t-40.5 -98.5
t-97 -40.5z" />
    <glyph glyph-name="icon1" unicode="&#xe671;" 
d="M512 -62q-91 0 -173.5 35.5t-142 95t-95 142t-35.5 173.5t35.5 173.5t95 142t142 95t173.5 35.5t173.5 -35.5t142 -95t95 -142t35.5 -173.5t-35.5 -173.5t-95 -142t-142 -95t-173.5 -35.5v0v0zM512 766q-104 0 -192 -51t-139 -139t-51 -192t51 -192t139 -139t192 -51
t192 51t139 139t51 192t-51 192t-139 139t-192 51v0v0zM512 766zM755 550q-9 10 -22 10t-21 -10l-271 -271l-129 129q-9 8 -21.5 8t-21.5 -8q-8 -9 -8 -22t8 -21l148 -148q10 -10 24 -9q14 -1 23 9l291 290q8 10 8 22.5t-8 20.5z" />
    <glyph glyph-name="yanjing1" unicode="&#xe627;" 
d="M512 175q53 0 120 25t119.5 58.5t90.5 66t44 49.5q-3 18 -37.5 53.5t-86 72t-120.5 64t-130 27.5q-79 0 -168 -37t-147.5 -88.5t-58.5 -92.5q2 -16 37.5 -48t87 -65.5t121 -59t128.5 -25.5zM512 134q-62 0 -137.5 26.5t-135.5 64t-101 79t-41 69.5q0 57 67.5 119
t165.5 101t182 39q67 0 143.5 -29.5t135 -71t97.5 -86t39 -72.5q0 -24 -42 -64.5t-102.5 -79t-136 -67t-134.5 -28.5v0v0v0zM512 134zM512 279q43 0 73.5 30.5t30.5 73.5t-30.5 73.5t-73.5 30.5t-73.5 -30.5t-30.5 -73.5t30.5 -73.5t73.5 -30.5zM512 238q-60 0 -102.5 42.5
t-42.5 102.5t42.5 102.5t102.5 42.5t102.5 -42.5t42.5 -102.5t-42.5 -102.5t-102.5 -42.5v0v0v0zM512 238z" />
    <glyph glyph-name="youjiantou1" unicode="&#xe75b;" 
d="M281.5 -117q-9.5 0 -16 6.5t-6.5 15.5t7 16l463 463l-463 463q-7 7 -7 16t6.5 15.5t15.5 6.5t16 -7l479 -479q6 -6 6 -15t-6 -16l-479 -478q-6 -7 -15.5 -7z" />
    <glyph glyph-name="xiajiantou1-copy" unicode="&#xe60e;" 
d="M533 248v0v0l205 203q7 7 7 17.5t-7 17.5t-17.5 7t-17.5 -7l-187 -186l-186 188q-7 7 -17.5 7t-18 -7t-7.5 -17.5t8 -17.5l202 -205h0.5h0.5q7 -7 17.5 -7.5t17.5 7.5z" />
    <glyph glyph-name="001" unicode="&#xe623;" 
d="M998 443v0q-5 -15 -19 -22.5t-29 -2.5t-22.5 19t-2.5 29v0q15 46 5 96t-44.5 88t-82 53.5t-96.5 4.5q-15 -3 -28.5 5.5t-16.5 24t5.5 29t23.5 16.5v0q68 15 135.5 -6.5t116 -75t62.5 -124t-7 -134.5zM733 586v0q-13 -3 -24.5 4.5t-14.5 20.5t4.5 24.5t21.5 14.5
q33 7 65.5 -3t56 -36.5t30.5 -60.5t-3 -66q-4 -13 -16.5 -19t-25.5 -2t-19 16.5t-2 25.5v0q11 34 -13 61t-60 20zM524 525q77 33 137 33t85 -34q25 -36 0 -99q-5 -9 -2 -14.5t6.5 -7t11.5 -4.5q50 -16 85.5 -50t35.5 -87q0 -37 -20.5 -77t-60.5 -76.5t-93.5 -65.5
t-126 -46.5t-150.5 -17.5q-106 0 -200 31t-156 93.5t-62 141.5q0 64 38.5 136.5t109.5 144.5q94 94 190 131.5t137 -3.5q36 -36 11 -117q-5 -17 11 -15q13 1 13 3zM394 432q-124 -12 -206 -78.5t-74 -148.5q5 -53 49.5 -94.5t116 -61t152.5 -11.5q124 13 206 79t74 148
q-6 53 -50 94.5t-115.5 61t-152.5 11.5zM326 85q-60 19 -82.5 70.5t3.5 104.5q26 52 84.5 77.5t117.5 10.5q61 -16 87.5 -66.5t1.5 -105.5q-25 -58 -88 -84.5t-124 -6.5zM370 234q-19 8 -40.5 0.5t-33.5 -26t-7 -38t24 -28.5q19 -8 41.5 -1t34.5 26q12 20 6.5 39t-25.5 28z
M433.5 260q-7.5 3 -15.5 0t-12.5 -10.5t-2 -14.5t9.5 -10.5t15.5 0t12.5 10.5q5 8 2.5 15t-10 10z" />
    <glyph glyph-name="iconfontxinlang1" unicode="&#xe628;" 
d="M711 392q-14 2 -18.5 8t-0.5 11l3 4q1 3 3 6.5t5 14.5t4 22t-3.5 24.5t-15.5 23.5q-13 14 -34.5 18t-42.5 0.5t-40.5 -8.5t-31.5 -10l-12 -6q-10 -3 -16 -4t-9.5 0.5t-5.5 3t-1.5 7t1 9t2.5 11.5t3 13q0 15 -2.5 27t-10.5 25.5t-21 20.5t-38 6.5t-58 -11.5t-67 -34
t-59.5 -47.5t-46.5 -47t-32 -37.5l-11 -15q-20 -26 -33 -53t-18.5 -45t-7.5 -35.5t-2 -23v-8.5v0q5 -46 27.5 -82t53.5 -59t73 -38.5t80.5 -23t81.5 -10.5q71 -6 146.5 11t141 58t92.5 99q16 34 16 63.5t-10 48t-27 33t-31.5 21t-26.5 9.5zM421 94q-103 -5 -175 40t-72 114
q0 68 71.5 117.5t175.5 54.5q104 4 175.5 -35.5t71.5 -106.5q0 -70 -73 -125t-174 -59zM393 359q-38 -4 -64.5 -21t-37 -37.5t-16 -40.5t-4.5 -33l1 -13v-5t2 -11t5.5 -15.5t11 -16.5t18.5 -14q62 -31 116.5 -19t88.5 56q16 20 17.5 51.5t-10.5 60t-45.5 46.5t-82.5 12z
M359 177.5q-19 -2.5 -32.5 7.5t-13.5 26q0 17 12.5 31t30.5 16q22 2 35.5 -9t13.5 -27t-13.5 -29t-32.5 -15.5zM439.5 247q-6.5 -5 -13.5 -4.5t-10 6.5q-4 6 -2.5 14t8.5 12q7 6 14 5t10.5 -7t1.5 -13.5t-8.5 -12.5zM778 448q8 0 14.5 5.5t7.5 13.5v2q4 31 -1 54.5
t-15.5 36.5t-24.5 22t-28.5 11.5t-26.5 3t-19 -0.5l-8 -1q-9 0 -16 -7t-7 -16t7 -16t16 -7q30 6 47 0.5t24 -18.5t8.5 -26.5t0.5 -23.5l-2 -11q0 -9 7 -15.5t16 -6.5zM762 713q-48 11 -113 -2l-1 -0.5t-2 -0.5l-1 -1q-10 -2 -16.5 -11t-6.5 -20q0 -14 9.5 -23.5t22.5 -9.5
q18 2 30 7q5 0 16.5 1.5t31 -3.5t39 -12.5t40.5 -25t35 -41.5q25 -57 10 -109q-6 -17 -6 -32q0 -14 9 -22t23 -8t21.5 5t10.5 23v0q17 53 13 96.5t-18.5 75.5t-40.5 55.5t-52 37t-54 20.5z" />
    <glyph glyph-name="iconfontxinlang2" unicode="&#xe633;" 
d="M700 411q-14 3 -18.5 9t-1.5 10l3 5q2 2 4 6t5 15t4 21.5t-3.5 24.5t-15.5 25q-14 13 -35.5 17.5t-43 1t-41.5 -9t-32 -10.5l-12 -5q-10 -3 -16 -4.5t-10 0t-5.5 3t-1.5 7t1 9t2.5 12t2.5 13.5q0 14 -2 26.5t-10 26t-22 21t-39 7t-59 -12.5q-101 -34 -204 -162l-16 -20
q-31 -42 -46.5 -83.5t-14.5 -62.5v-21q5 -46 28 -83t54.5 -59.5t74 -38.5t81.5 -23.5t83 -11.5q72 -5 149 12t143.5 58.5t93.5 99.5q16 35 16.5 64.5t-10 48.5t-27.5 33.5t-32 21t-27 9.5zM405 110q-104 -5 -177.5 40.5t-73.5 115.5q0 68 73 118t178 55q106 5 178.5 -35
t72.5 -108q0 -70 -74 -125.5t-177 -60.5zM377 378q-28 -3 -50.5 -13t-35 -23.5t-21.5 -28.5t-12 -29.5t-4 -26t-1 -19t1 -7.5q-1 -2 -0.5 -5t2 -11t5 -15.5t11.5 -16.5t19 -15q63 -30 118.5 -18t89.5 56q16 21 18 52.5t-10 60.5t-46.5 47t-83.5 12zM341.5 194.5
q-19.5 -2.5 -33 7.5t-13.5 26q0 17 12.5 31t31.5 17q22 2 36 -9t14 -28q0 -16 -14 -29t-33.5 -15.5zM424.5 265q-6.5 -5 -14 -4.5t-10.5 6.5q-4 5 -2.5 13.5t8.5 12.5q7 6 14.5 5t10.5 -7q4 -6 2 -13.5t-8.5 -12.5zM768 467q8 0 14.5 5.5t7.5 13.5q1 2 1 3q3 31 -2 55
t-16 37t-24.5 22t-28.5 11.5t-27 3t-20 -0.5l-8 -1q-9 0 -16 -7t-7 -16.5t7 -16t16 -6.5q30 6 47.5 0.5t25 -19t9 -27t0.5 -23.5l-2 -11q0 -9 7 -16t16 -7zM752 735q-49 11 -115 -1l-1 -0.5t-2 -0.5l-1 -1q-10 -3 -17 -12t-7 -20q0 -14 10 -24t23 -10q18 3 30 8q6 0 17.5 1
t31.5 -4t40 -12.5t41 -25t36 -41.5q25 -58 10 -111q-7 -16 -7 -32q0 -13 9.5 -21.5t23.5 -8.5t22 5.5t10 22.5h1q17 54 13 98t-19 76t-41 56t-53 37.5t-55 20.5z" />
    <glyph glyph-name="zan2" unicode="&#xe9a7;" 
d="M913 385q0 38 -27.5 59.5t-72.5 21.5h-168q17 69 17 125q0 176 -75 176q-36 0 -63 -16q-10 -6 -12 -17l-24 -136q-31 -83 -151 -176v-358q19 0 64 -22q55 -27 86 -27h238q36 0 62 23.5t26 51.5q0 10 -2 19q23 8 37.5 27t14.5 42q0 22 -8 39q38 27 38 61q0 23 -16 42
q36 27 36 65zM860 385q0 -14 -8 -23.5t-18 -16t-11 -11.5q-2 -8 9 -23t11 -31q0 -14 -9.5 -22t-20.5 -13.5t-13 -11.5q-3 -10 4.5 -25t7.5 -30v-6q-3 -15 -26 -24.5t-25 -12.5q-3 -8 -2.5 -10.5t2 -13.5t1.5 -21q0 -11 -10.5 -18t-26.5 -7h-238q-19 0 -64 22q-40 20 -61 25
v266q138 106 174 205q0 2 1 4l23 126q9 4 27 4q4 0 9.5 -10.5t10.5 -41t5 -74.5q0 -55 -19 -125h-6q-11 0 -18 -7.5t-7 -17.5t7 -17.5t18 -7.5h226q19 0 33 -8.5t14 -22.5zM312 15h-151q-21 0 -35.5 14.5t-14.5 35.5v351q0 21 14.5 35.5t35.5 14.5h151q20 0 35 -14.5
t15 -35.5v-351q0 -21 -15 -35.5t-35 -14.5zM312 65zM161 416v-351h150l1 351h-151zM161 416v0v0v0v0z" />
    <glyph glyph-name="xiajiantou" unicode="&#xe6c4;" 
d="M511 248l-397 368l-50 -43l447 -415l447 415l-50 43z" />
    <glyph glyph-name="dingwei5" unicode="&#xe63d;" 
d="M115 473q-2 136 74 246t199 152q139 46 268 6.5t215 -156.5q78 -106 78 -244.5t-79 -244.5q-88 -116 -245 -305q-47 -56 -96.5 -54.5t-95.5 59.5q-184 228 -227 285q-94 123 -91 256zM168 473q-10 -99 66 -201q57 -79 250 -317q26 -30 51 -27.5t49 32.5q16 20 75 91.5
t96 119t71 94.5q74 107 71 223.5t-79 214.5q-71 91 -182.5 124.5t-220.5 -4.5q-112 -38 -179.5 -133t-67.5 -217zM352 479q0 76 49 127.5t123 51.5q81 1 135.5 -50t54.5 -127q1 -77 -53.5 -131.5t-131.5 -53.5q-76 1 -126.5 53t-50.5 130zM532 605q-53 1 -89 -34t-38 -89
q-1 -55 35.5 -93t91.5 -39q52 0 89 36.5t38 88.5q1 56 -35 93t-92 37z" />
    <glyph glyph-name="shangjiantou" unicode="&#xe619;" 
d="M952 204l-413 413q0 1 -1 2l-32 31q-3 4 -8.5 4t-8.5 -4l-32 -31q0 -1 -1 -2l-413 -413h41.5h56.5l357 357l356 -357h98z" />
    <glyph glyph-name="jiantoushang" unicode="&#xe6be;" 
d="M511 386zM612 414zM168 231zM942 204l-407 408q-10 9 -23 9t-22 -9l-407 -408q-10 -9 -10 -22t9.5 -22.5t22.5 -9.5t23 9l384 385l385 -385q9 -9 22.5 -9t22.5 9.5t9 22.5t-9 22z" />
    <glyph glyph-name="yudingshijian" unicode="&#xe60f;" 
d="M512 784q-104 0 -192.5 -51.5t-140 -140t-51.5 -192.5t51.5 -192.5t140 -140t192.5 -51.5t192.5 51.5t140 140t51.5 192.5t-51.5 192.5t-140 140t-192.5 51.5v0zM512 51q-95 0 -175.5 46.5t-127 127t-46.5 175.5t46.5 175.5t127 127t175.5 46.5t175.5 -46.5t127 -127
t46.5 -175.5t-46.5 -175.5t-127 -127t-175.5 -46.5v0zM704 400h-175v227q0 7 -5 12t-12 5t-12 -5t-5 -12v-244q0 -8 5 -13t12 -5h192q7 0 12 5t5 12.5t-5 12.5t-12 5v0zM704 400z" />
    <glyph glyph-name="shangjiantou1" unicode="&#xe64e;" 
d="M545 256l331 329l86 1l-418 -404h-55l-427 404h84l344 -329z" />
    <glyph glyph-name="aixin" unicode="&#xe612;" 
d="M717 800q-71 -13 -119 -45q-1 -1 -14 -11.5t-20 -16.5l-53 -53q-17 13 -40.5 35t-40 36t-41 28.5t-56 21.5t-71.5 6l-60 -9q-84 -26 -129 -82q-30 -39 -45 -76q-13 -33 -16.5 -64.5t-1.5 -56t14 -52t22 -45.5t30 -42.5t32 -36.5l34 -34l9 -9l1 -1l1 -1l1 -1l1 -1l1 -1
l1 -1l1 -1l1 -1h1l1 -1l1 -1l1 -1l1 -1l1 -1l1 -1l1 -1l1 -1l1 -1l1 -1l1 -1l1 -1l1 -1l1 -1l1 -1l1 -1l1 -1l1 -1l1 -1l1 -1l1 -1l1 -1l1 -1l1 -1l1 -1l1 -1l1 -1l1 -1l1 -1l1 -1l1 -1l1 -1l1 -1l1 -1l1 -1l1 -1l1 -1l1 -1l1 -1l1 -1l1 -1l1 -1l1 -1l1 -1l1 -1l1 -1l1 -1
l1 -1l1 -1l1 -1l1 -1l1 -1l1 -1l1 -1l1 -1l2 -2l1 -1l1 -1l1 -1l1 -1l1 -1l1 -1l1 -1l1 -1l1 -1l1 -1l1 -1l1 -1l1 -1l1 -1l1 -1l1 -1l1 -1l1 -1l1 -1l1 -1l1 -1l1 -1h1l1 -1l1 -1l1 -1l1 -1l1 -1l1 -1l1 -1l1 -1l1 -1l1 -1l1 -1l1 -1l1 -1l1 -1l1 -1l1 -1l1 -1l1 -1l1 -1
l1 -1l1 -1l1 -1l1 -1l1 -1l1 -1l1 -1l1 -1l1 -1l1 -1l1 -1l1 -1l1 -1l1 -1l1 -1l1 -1l1 -1l1 -1l1 -1l1 -1l1 -1l1 -1l2 -2l162 -161q4 -3 14 -13t16.5 -14t19 -7.5t27.5 -0.5q23 4 47 22.5t56.5 55.5t35.5 39q73 71 191 190q10 9 35.5 33.5t37.5 37.5t30 35t29.5 45.5
t19.5 49.5q17 64 -1 129t-59.5 111t-102.5 70.5t-124 13.5zM925 446q-9 -15 -22 -31t-23.5 -26t-27.5 -26.5t-26 -24.5q-26 -27 -60.5 -61l-69 -68t-61.5 -61q-3 -3 -17.5 -18.5t-29.5 -30.5t-31 -31.5t-28.5 -26t-17.5 -9.5q-7 -1 -16 6.5t-19.5 20.5t-12.5 15
q-25 24 -69 68t-60 59l-1 1l-1 1l-1 1l-1 1l-1 1l-1 1l-1 1l-1 1l-1 1l-1 1l-1 1l-1 1l-1 1l-1 1l-1 1l-1 1l-1 1l-1 1l-1 1l-1 1l-1 1l-1 1l-1 1l-1 1l-1 1l-1 1l-1 1l-1 1l-1 1l-1 1l-1 1l-1 1l-1 1l-1 1l-1 1l-1 1l-1 1l-1 1l-1 1l-1 1l-1 1l-1 1l-1 1l-1 1l-1 1l-1 1
l-1 1l-1 1l-1 1l-1 1l-1 1l-1 1l-1 1l-1 1l-1 1h-1l-1 1l-1 1l-1 1l-1 1l-1 1l-1 1l-1 1l-1 1l-1 1l-1 1l-1 1l-1 1l-1 1l-1 1l-1 1l-1 1l-1 1l-1 1l-1 1l-1 1l-1 1l-1 1l-1 1l-1 1l-1 1l-1 1l-1 1l-1 1l-1 1l-1 1l-1 1l-1 1l-1 1l-1 1l-1 1l-1 1l-1 1l-1 1l-1 1l-1 1l-1 1
l-1 1l-1 1l-1 1l-1 1l-1 1l-1 1l-1 1l-1 1l-1 1l-1 1l-1 1l-1 1l-1 1l-1 1l-1 1l-1 1l-1 1l-1 1l-1 1l-1 1l-1 1l-1 1l-1 1l-1 1l-1 1l-1 1l-1 1l-1 1l-1 1l-1 1l-1 1l-1 1l-1 1l-1 1l-1 1l-1 1l-1 1l-1 1l-1 1l-1 1l-1 1l-1 1l-2 2l-1 1h-1l-1 1l-1 1l-1 1l-1 1l-1 1l-1 1
l-1 1l-1 1l-1 1l-1 1l-1 1l-1 1l-1 1l-2 2q-4 5 -22 22t-26 25.5t-19.5 24t-17.5 30.5q-22 58 -11 117.5t45 96.5q40 43 96 59q8 1 22 3.5t20 3.5q37 -1 59.5 -7.5t50 -23.5t38.5 -23l1 -1l1 -1l1 -1l1 -1l1 -1l1 -1l1 -1l1 -1l1 -1l1 -1l1 -1l1 -1l1 -1l1 -1l1 -1l1 -1
l1 -1l1 -1l1 -1l1 -1l1 -1l1 -1l1 -1l1 -1l1 -1l1 -1l1 -1l1 -1l1 -1l1 -1l1 -1l1 -1l1 -1l1 -1l1 -1l1 -1l1 -1l1 -1l1 -1l1 -1l1 -1l1 -1l1 -1l1 -1l1 -1l1 -1l1 -1l1 -1l1 -1l1 -1l1 -1l1 -1l1 -1l1 -1l1 -1l1 -1l1 -1l1 -1l1 -1l1 -1l1 -1l1 -1l1 -1l1 -1l2 -1l1 -1
l1 -1l1 -1l1 -1l1 -1l1 -1l1 -1l1 -1l1 -1l1 -1l1 -1l1 -1l1 -1l1 -1l1 -1l1 -1l1 -1l1 -1l1 -1l1 -1l1 -1l1 -1l1 -1l1 -1l1 -1l1 -1l1 -1l1 -1l1 -1l1 -1l1 -1l1 -1l2 -2q18 14 65 64t82 68q67 32 126.5 18.5t103 -56.5t56.5 -99q7 -38 1 -74.5t-20 -60.5z" />
    <glyph glyph-name="weizhi" unicode="&#xe611;" 
d="M875 691v0q-9 10 -23 10q-11 -1 -19 -9t-8 -20v-2q1 -10 7 -17q52 -87 52 -189q0 -133 -85 -236l-1 -1l-286 -286l-286 286l-2 2q-84 102 -84 235q0 101 50 187t135.5 135.5t186.5 49.5q99 0 184 -49q9 -6 19 -6q12 1 20 9t7 19v3q0 13 -12 21v0v0.5v0.5q-2 0 -3 1
q-99 58 -215 58q-117 0 -215.5 -57.5t-156 -156t-57.5 -215.5q0 -152 96 -270h1q2 -4 5 -7l307 -307q8 -8 20 -8t20 8l307 307q3 4 5 8h1q95 118 95 269q0 123 -65 227zM512 665q-83 0 -142 -59t-59 -142t59 -141.5t142 -58.5t141.5 58.5t58.5 141.5t-58.5 142t-141.5 59z
M511.5 322q-59.5 0 -101 42t-41.5 101t41.5 101t101 42t101 -42t41.5 -101t-41.5 -101t-101 -42z" />
    <glyph glyph-name="weixin4" unicode="&#xe613;" 
d="M707 554q8 0 20 -1q-21 115 -123 191.5t-238 76.5q-99 0 -183.5 -42.5t-133.5 -116t-49 -159.5q0 -73 36 -137.5t99 -108.5q7 -5 -15 -58t-14 -57q10 -5 68.5 30t70.5 32q58 -18 121 -18h17q-11 37 -11 75q0 79 45 146.5t122 107t168 39.5zM509.5 658q19.5 0 33 -14
t13.5 -33t-13.5 -33t-33 -14t-33.5 14t-14 33t14 33t33.5 14zM222.5 564q-19.5 0 -33.5 14t-14 33t14 33t33.5 14t33 -14t13.5 -33t-13.5 -33t-33 -14zM390 260.5q0 -113.5 93 -194t224 -80.5q54 0 105 15q10 3 60.5 -27t59.5 -26q7 4 -12 49.5t-13 49.5q54 39 85.5 94.5
t31.5 119.5q0 113 -93 193.5t-224 80.5t-224 -80.5t-93 -194zM791 354q0 17 12 28.5t28.5 11.5t28.5 -11.5t12 -28.5t-12 -28.5t-28.5 -11.5t-28.5 11.5t-12 28.5zM543 354q0 17 12 28.5t28.5 11.5t28.5 -11.5t12 -28.5t-12 -28.5t-28.5 -11.5t-28.5 11.5t-12 28.5z" />
    <glyph glyph-name="zan3" unicode="&#xe614;" 
d="M842 379q0 -5 -1 -10l-63 -277q-1 -5 -4 -9q-11 -21 -31 -34q-21 -13 -46 -13v0h-403h-4h-4h-108h-4q-12 0 -20.5 8.5t-8.5 20.5v348q0 12 8.5 20.5t20.5 8.5h4h96v1q67 5 113.5 53t47.5 116v7q0 35 24.5 60t59.5 25q30 0 53 -18.5t30 -47.5v0q7 -33 7 -66
q0 -52 -16 -100l162 -1h4q46 -2 70 -41q15 -23 13 -51zM203 95h58v290l-58 -1v-289v0zM780 400q-9 14 -25 14v0v0h-205q-12 0 -20.5 8.5t-8.5 20.5q0 7 3 13v0q17 33 24 70h1q4 16 4 46q0 10 -1.5 21.5t-2.5 17.5l-1 6v0v0.5v1.5q0 11 -8 19t-19 8t-19 -8t-8 -19v-2v0
q0 -23 -4 -47q-3 -13 -8 -26v0q-18 -56 -61.5 -97t-100.5 -55l-1 -297l379 -1h3q6 1 11 4q8 5 11 13v0l60 266v0q4 12 -3 23v0z" />
    <glyph glyph-name="jiantouzuo" unicode="&#xe615;" 
d="M746 -49q14 14 14 33.5t-14 33.5l-368 367l365 365q14 14 14 33.5t-14 33.5t-33.5 14t-33.5 -14l-398 -398q-13 -13 -13.5 -32t11.5 -33q2 -3 5 -5l398 -398q14 -14 33.5 -14t33.5 14v0z" />
    <glyph glyph-name="iconset0118" unicode="&#xe616;" 
d="M576 154h-252q-9 0 -15 -6t-6 -15.5t6 -15.5t15 -6h252q10 0 15.5 6t5.5 15t-7 15.5t-14 6.5zM700 320h-376q-9 0 -15 -6t-6 -15.5t6 -15.5t15 -6h376q9 0 15 6t6 15.5t-6 15.5t-15 6zM324 614h103q9 0 15 6t6 15.5t-6 15.5t-15 6h-103q-9 0 -15 -6t-6 -15.5t6 -15.5
t15 -6zM678 841h-64h-392q-35 0 -60 -25.5t-25 -60.5v-751q0 -35 25 -60t60 -25h584q36 0 61 25t25 60v568v42zM845 9q0 -17 -12 -30t-31 -13h-580q-17 0 -30 12t-13 31v750q0 17 12 30t31 13h375v-209q0 -17 12.5 -30t30.5 -13h209v-541h-4zM636 593v209h21l188 -209h-209z
M303 469q0 -9 6 -15t15 -6h376q9 0 15 6t6 15.5t-6 15.5t-15 6h-376q-21 -7 -21 -22z" />
    <glyph glyph-name="iconset0290" unicode="&#xe6bd;" 
d="M789 619q-8 0 -21 -5v5h-2q-6 48 -37 89.5t-78 68.5l30 42v0q0 2 1 6.5t1 6.5q0 10 -6 15.5t-16 5.5t-17 -10v0l-34 -49q-48 17 -98 17t-98 -17l-34 49v0q-7 10 -17 10t-16 -5.5t-6 -15.5q0 -6 5 -11v0l29 -42q-48 -26 -79 -67.5t-36 -90.5h-4v-4q-13 4 -21 4
q-28 0 -46 -18.5t-18 -45.5v-299q0 -27 18 -45.5t46 -18.5q8 0 21 4v-70q0 -18 12.5 -30.5t30.5 -12.5h42v-106q0 -28 18.5 -46t46 -18t45.5 18t18 46v106h86v-106q0 -28 18 -46t45.5 -18t46 18t18.5 46v106h42q18 0 30.5 12.5t12.5 30.5v68q13 -4 21 -4q28 0 46 18.5
t18 45.5v299q0 27 -18 45.5t-46 18.5zM256 256q0 -10 -6 -15.5t-15.5 -5.5t-15.5 5.5t-6 15.5v299q0 9 6 15t15.5 6t15.5 -6t6 -15v-299zM512 768q81 0 141.5 -43t69.5 -106h-422q9 63 69.5 106t141.5 43zM427 -21q0 -10 -6 -16t-15.5 -6t-15.5 6t-6 16v106h43v-106z
M640 -21q0 -10 -6 -16t-15.5 -6t-15.5 6t-6 16v106h43v-106zM725 128h-426v448h426v-448zM811 256q0 -10 -6 -15.5t-15.5 -5.5t-15.5 5.5t-6 15.5v299q0 9 6 15t15.5 6t15.5 -6t6 -15v-299zM576 704q-10 0 -15.5 -6t-5.5 -15.5t5.5 -15.5t15.5 -6t15.5 6t5.5 15.5t-5.5 15.5
t-15.5 6zM448 704q-10 0 -15.5 -6t-5.5 -15.5t5.5 -15.5t15.5 -6t15.5 6t5.5 15.5t-5.5 15.5t-15.5 6z" />
    <glyph glyph-name="iconfontjiantou11" unicode="&#xe631;" 
d="M352 384l384 384q10 10 10 22.5t-10 22t-22.5 9.5t-22.5 -9l-403 -403q-13 -13 -13 -26q0 -19 7 -26l409 -409q10 -10 22.5 -10t22.5 9.5t10 22.5t-10 23z" />
    <glyph glyph-name="xinlang" unicode="&#xe621;" horiz-adv-x="1282" 
d="M949 398q-22 4 -28.5 13t-1.5 16l5 7q2 3 4.5 9t8 23t6.5 33t-6 37t-23 37q-20 20 -53.5 26.5t-66 1.5t-62 -13t-48.5 -16l-19 -8q-14 -5 -23.5 -6.5t-15 0.5t-8 4.5t-2 10.5t1.5 13.5t3.5 18t4.5 20.5q0 22 -3.5 40.5t-16 39t-33 31.5t-58.5 10t-89 -18
q-50 -17 -103 -52t-92 -72t-71.5 -72t-49.5 -57t-17 -23q-30 -40 -50.5 -80.5t-28.5 -70t-11.5 -53.5t-3 -36t1.5 -12q7 -70 41.5 -125.5t82 -90t112.5 -59t124 -35.5t126 -16q80 -6 168 8t169.5 45t148 84t97.5 120q24 52 25 97t-15 73.5t-42 50.5t-48.5 32t-40.5 14v0z
M502 -57q-103 -5 -190.5 24.5t-138 85.5t-50.5 125t50.5 127.5t137.5 94.5t191 40q105 5 191.5 -20t137.5 -76.5t51 -119.5q0 -70 -50.5 -133t-138.5 -103.5t-191 -44.5v0zM502 -57zM460 348q-43 -5 -76.5 -20.5t-52.5 -34.5t-32.5 -43.5t-18 -44t-6.5 -40.5t-1.5 -28
t1.5 -11v0v-7.5t3 -17t8 -23.5t17 -24.5t28 -22.5q60 -32 122 -33t111 23t82 67q16 20 23 49.5t5 60.5t-17 60.5t-39.5 51.5t-65 33t-91.5 5v0zM407 70q-29 -3 -50 12t-21 40t19.5 46.5t48.5 24.5q33 3 53.5 -13t20.5 -42q0 -24 -20.5 -44t-50.5 -24v0zM532 176
q-10 -7 -21 -6t-16 10q-6 8 -3.5 20.5t12.5 19.5q12 8 22.5 7t16.5 -10q5 -9 1.5 -21t-12.5 -20v0zM532 176zM1052 483q13 0 22.5 8.5t11.5 20.5v4q6 47 -2 83t-24.5 56t-37.5 33.5t-43 17t-40.5 4.5t-30.5 -0.5l-12 -1.5q-14 0 -24 -10.5t-10 -24.5t10 -24.5t24 -10.5
q46 9 72.5 1t37.5 -28t13.5 -41t-0.5 -36l-2 -16q0 -15 10.5 -25t24.5 -10v0zM1052 483zM1027 888q-74 17 -173 -2q-1 0 -2.5 -1t-2.5 -1l-1 -1q-16 -4 -26.5 -17.5t-10.5 -31.5q0 -20 15 -35t36 -15q27 4 45 11q6 2 20 2t35.5 -2t47.5 -10.5t52 -22t51.5 -37t43.5 -54.5
q38 -86 15 -167q-10 -24 -10 -48q0 -20 14.5 -32.5t35.5 -12.5t33 7.5t16 34.5v0q20 66 20.5 125t-15.5 103t-41 80.5t-59.5 61t-69 40.5t-69.5 25v0zM1027 888z" />
    <glyph glyph-name="arrowr" unicode="&#xe635;" 
d="M343.5 18q-8.5 8 -8.5 19.5t8 19.5l342 342l-342 342q-8 8 -8 19.5t8 19.5t19.5 8t19.5 -8l381 -381l-381 -381q-8 -8 -19 -8t-19.5 8z" />
    <glyph glyph-name="zuojiantou-copy-copy" unicode="&#xe61b;" 
d="M691 -91q-16 0 -26 10l-439 439q-11 11 -11 26t11 26l439 439q10 10 25.5 10t26 -10.5t10.5 -25.5t-11 -26l-413 -413l413 -413q11 -11 11 -26t-10.5 -25.5t-25.5 -10.5v0z" />
    <glyph glyph-name="xinlang1" unicode="&#xe638;" 
d="M711 364q-11 5 -11.5 22.5t11.5 31.5q3 5 4.5 19t-6 31t-24.5 29t-57 10.5t-98 -21.5l-49 -8q3 8 7 21q4 19 5 36t-3 37t-22 31.5t-50 9.5q-11 0 -32.5 -7.5t-57 -27t-86.5 -64t-105 -107.5q-1 -2 -4 -6q-116 -175 -13 -284q2 -2 8 -7q24 -19 43 -32t59 -32.5t94.5 -28.5
t119.5 -7q21 0 57 6t89 24t100.5 45t87 74.5t52.5 105.5q1 10 -4 23.5t-17 30.5t-37.5 29.5t-60.5 15.5zM677 214v0q-2 -5 -7 -13q-15 -28 -37 -49t-48.5 -33.5t-48 -20.5t-50 -12t-39 -5t-30.5 -3q-176 -15 -234 87q-26 49 -11 97q17 40 48.5 70.5t62 45.5t67 25t53.5 12.5
t31 2.5q38 8 72.5 3t59.5 -14t47.5 -25t36.5 -30t25 -30q29 -49 2 -108zM408.5 342q-56.5 0 -96.5 -33t-40 -79t40 -79t96.5 -33t96.5 33t40 79t-40 79t-96.5 33zM363.5 163q-18.5 0 -32 13.5t-13.5 32t13.5 32t32 13.5t32 -13.5t13.5 -32t-13.5 -32t-32 -13.5zM444 228
q-9 0 -15.5 6t-6.5 15t6.5 15.5t15.5 6.5t15.5 -6.5t6.5 -15.5t-6.5 -15t-15.5 -6zM707 704q-11 0 -25 -2q-3 1 -6 1q-11 0 -19 -8t-8 -19.5t8 -19.5t19 -8q1 0 4 1v-1q15 2 27 2q73 0 124.5 -51.5t51.5 -123.5q0 -21 -6 -43q-3 -6 -3 -12q0 -11 8 -19t19 -8q20 0 26 19v0v0
v0q1 2 1 3q8 30 8 60q0 95 -67 162t-162 67zM654 560q0 -10 7.5 -17.5t17.5 -7.5q3 0 6 1v-2q13 6 26 6q26 0 44 -18t18 -44q0 -9 -3 -20h1q-3 -6 -3 -12q0 -10 7.5 -17.5t17.5 -7.5q15 0 22 14h1q9 20 9 43q0 47 -33.5 80t-80.5 33q-22 0 -43 -8v-1q-14 -6 -14 -22z" />
    <glyph glyph-name="jiantouzuo1" unicode="&#xe66b;" 
d="M653 864l-474 -480zM179 384l474 -480zM243 352q-19 0 -25 6q-10 10 -10 23t10 22l480 480q9 10 22 10t22.5 -9.5t9.5 -22.5t-10 -23l-480 -480q-6 -6 -19 -6zM717 -128q-19 0 -26 6l-473 480q-10 10 -10 23t9.5 22.5t22.5 9.5t22 -10l480 -480q10 -9 10 -22t-10 -23
q-2 0 -10 -3t-15 -3z" />
    <glyph glyph-name="anzhuo" unicode="&#xe61d;" 
d="M964 554q25 0 42.5 -14.5t17.5 -36.5v-301q0 -21 -17.5 -35.5t-42.5 -14.5h-20q-24 0 -41.5 14.5t-17.5 35.5v301q0 22 17.5 36.5t41.5 14.5h20v0zM80 554q24 0 40.5 -14.5t16.5 -36.5v-301q0 -21 -16.5 -35.5t-40.5 -14.5h-20q-25 0 -42.5 14.5t-17.5 35.5v301
q0 22 17.5 36.5t42.5 14.5h20v0zM682 792q19 -8 40 -22.5t41 -34t34.5 -42.5t21.5 -49h-619q17 55 54.5 89.5t76.5 55.5l-57 82q-2 2 -0.5 7t12.5 11q9 8 16 7t10 -3l57 -83q30 14 64 21t70 7q74 0 138 -29l58 84q2 2 8 2t18 -6q11 -5 12.5 -9t-0.5 -6zM377 704q14 0 24 9
t10 22.5t-10 22.5t-23.5 9t-24 -9t-10.5 -22.5t10.5 -22.5t23.5 -9v0zM646 708q13 0 23 9t10 22.5t-10 22.5t-23.5 9t-24 -9t-10.5 -22.5t10.5 -22.5t24.5 -9v0zM819 580l1 -460q0 -23 -16 -38t-38 -15h-15v-144q0 -20 -16 -35.5t-40 -15.5h-30q-23 0 -39 15.5t-16 35.5v144
h-200v-144q0 -20 -15.5 -35.5t-39.5 -15.5h-31q-22 0 -38 15.5t-16 35.5v144h-12q-22 0 -38 15t-16 38v460h615v0zM819 580z" />
    <glyph glyph-name="xiajiantou1" unicode="&#xe6ea;" 
d="M527 187l361 363q5 6 4 14t-6 13.5t-14 5.5t-14 -4l-347 -346l-347 348q-5 4 -14.5 3.5t-14.5 -5.5q-5 -6 -4.5 -16t5.5 -15l359 -358q1 -2 2 -3q5 -5 15 -5t15 5v0zM527 187z" />
    <glyph glyph-name="zuojiantou1" unicode="&#xe61e;" 
d="M205 388l564 508l50 -61l-502 -447l502 -458l-56 -56z" />
    <glyph glyph-name="note2" unicode="&#xe639;" 
d="M288 429q0 -9 6.5 -15.5t16.5 -6.5h395q9 0 15.5 6.5t6.5 15.5v23q0 10 -6.5 16.5t-15.5 6.5h-395q-10 0 -16.5 -6.5t-6.5 -16.5v-23zM311 574h395q9 0 15.5 6.5t6.5 16.5v23q0 9 -6.5 15.5t-15.5 6.5h-395q-10 0 -16.5 -6.5t-6.5 -15.5v-23q0 -10 6.5 -16.5t16.5 -6.5z
M288 262q0 -9 6.5 -16t16.5 -7h323q9 0 16 7t7 16v23q0 9 -7 16t-16 7h-323q-10 0 -16.5 -7t-6.5 -16v-23zM870 833h-716q-12 0 -21 -9t-9 -22v-836q0 -13 9 -22t21 -9h377v76h-307q-10 0 -17.5 7.5t-7.5 18.5v694q0 11 7.5 18.5t17.5 7.5h576q10 0 17.5 -7.5t7.5 -18.5
v-536h-167q-12 0 -14.5 -3.5t-2.5 -16.5v-240h84l174 180h1v687q0 13 -9 22t-21 9zM698 25v60q0 11 9.5 22.5t20.5 11.5h72z" />
    <glyph glyph-name="aixin1" unicode="&#xe653;" 
d="M512 629q42 68 97 107.5t109 46.5t107 -5.5t93 -42.5t65 -71.5t25 -85.5q0 -34 -9.5 -69.5t-23.5 -67t-41.5 -69.5t-50 -67t-63.5 -69.5t-68.5 -67t-78 -70t-78.5 -67t-83 -68.5l-1 1v41l1 -1q248 196 363 340t102 232q-8 57 -41 98t-78 59t-98 16.5t-101 -22t-88 -64.5
t-59 -104q-30 58 -75.5 100.5t-94 63.5t-98.5 23.5t-91 -14t-69.5 -55t-35.5 -94.5q-6 -47 18 -108t77.5 -134t147.5 -160t220 -176v-41q-55 45 -83.5 69t-78.5 67t-77.5 69.5t-68 67t-63 69.5t-50 67t-41 69.5t-23 67t-9.5 68.5q0 71 29.5 117.5t76 64t104 16.5t112 -20
t102 -52.5t71.5 -74.5z" />
    <glyph glyph-name="xiajiantou2" unicode="&#xe67d;" 
d="M56 666l-55 -55l509 -508l508 508l-55 55l-453 -453z" />
    <glyph glyph-name="wendang1" unicode="&#xe656;" 
d="M288 429q0 -9 6.5 -15.5t16.5 -6.5h395q9 0 15.5 6.5t6.5 15.5v23q0 10 -6.5 16.5t-15.5 6.5h-395q-10 0 -16.5 -6.5t-6.5 -16.5v-23zM311 574h395q9 0 15.5 6.5t6.5 16.5v23q0 9 -6.5 15.5t-15.5 6.5h-395q-10 0 -16.5 -6.5t-6.5 -15.5v-23q0 -10 6.5 -16.5t16.5 -6.5z
M288 262q0 -9 6.5 -16t16.5 -7h323q9 0 16 7t7 16v23q0 9 -7 16t-16 7h-323q-10 0 -16.5 -7t-6.5 -16v-23zM870 833h-716q-12 0 -21 -9t-9 -22v-836q0 -13 9 -22t21 -9h377v76h-307q-10 0 -17.5 7.5t-7.5 18.5v694q0 11 7.5 18.5t17.5 7.5h576q10 0 17.5 -7.5t7.5 -18.5
v-536h-167q-12 0 -14.5 -3.5t-2.5 -16.5v-240h84l174 180h1v687q0 13 -9 22t-21 9zM698 25v60q0 11 9.5 22.5t20.5 11.5h72z" />
    <glyph glyph-name="jiantoushang1" unicode="&#xe61f;" 
d="M923 140l-412 420l-412 -420l-35 35l447 456l446 -456z" />
    <glyph glyph-name="zan4" unicode="&#xe6aa;" 
d="M853 65q0 -38 -26.5 -64.5t-64.5 -26.5h-364v0h-113h-1h-159v501h159q2 0 3 -0.5t3 -0.5h3q65 188 85 233q18 43 37.5 61.5t50.5 24.5q17 4 43 -6.5t52 -35.5t37 -66.5t-2 -100.5q-5 -17 -16 -64h251q35 0 51.5 -25t16.5 -66zM262 429h-91v0v-409v0v-1h91v1h22v0v405l1 3
v0q-2 1 -23 1zM808 475h-285l35 136q12 55 -17 94.5t-52 42.5q-14 1 -35 -9t-33 -37q-13 -30 -92 -248l0.5 -1l0.5 -1v-432v0h91v-1v0h341q19 0 32.5 13.5t13.5 32.5l45 364q0 19 -13 32.5t-32 13.5z" />
    <glyph glyph-name="see-icon-m3-file" unicode="&#xe637;" 
d="M252 436q0 -11 7.5 -18.5t17.5 -7.5h452q11 0 18.5 7.5t7.5 18.5v26q0 11 -7.5 18.5t-18.5 7.5h-452q-10 0 -17.5 -7.5t-7.5 -18.5v-26zM277 601h452q11 0 18.5 7.5t7.5 18.5v26q0 11 -7.5 18.5t-18.5 7.5h-452q-10 0 -17.5 -7.5t-7.5 -18.5v-26q0 -11 7.5 -18.5
t17.5 -7.5v0zM252 246q0 -11 7.5 -18.5t17.5 -7.5h370q11 0 18.5 7.5t7.5 18.5v26q0 10 -7.5 18t-18.5 8h-370q-10 0 -17.5 -8t-7.5 -18v-26zM917 895h-819q-14 0 -24 -10t-10 -24v-953q0 -14 10 -24.5t24 -10.5h431v87h-351q-12 0 -20.5 8.5t-8.5 20.5v791q0 12 8.5 20.5
t20.5 8.5h659q12 0 20 -8.5t8 -20.5v-611h-191q-13 0 -16 -4t-3 -19v-273h96l200 205v783q0 14 -10 24t-24 10v0zM721 -24v68q0 12 10.5 25t22.5 13h83l-116 -106v0z" />
    <glyph glyph-name="icons64x6416" unicode="&#xe651;" 
d="M514.5 504q-46.5 0 -79.5 -32.5t-33 -79t33 -79.5t79.5 -33t79 33t32.5 79.5t-32.5 79t-79 32.5zM514 312q-33 0 -56.5 23.5t-23.5 57t23.5 56.5t56.5 23t56.5 -23t23.5 -56.5t-23.5 -57t-56.5 -23.5zM867 394q-4 3 -15 15q-27 25 -43 40t-51 39.5t-66.5 38t-79.5 24.5
t-100 11t-100.5 -11.5t-81 -25.5t-67.5 -39t-51 -39.5t-42 -39.5l-13 -13l1 -2l-1 -1l13 -13q26 -25 42 -39.5t51 -39.5t67.5 -39.5t81 -26t100.5 -11.5t100 11t79.5 25t66.5 38.5t51 39t43 40.5l15 15l-1 1zM201 392q28 27 52 46t63 43t89 36.5t107 12.5q58 0 107 -12
t88 -35.5t62 -42t54 -48.5q-31 -29 -54 -47.5t-62 -42.5t-88 -36t-107 -12q-57 0 -107 13t-89 37t-63 42.5t-52 45.5z" />
    <glyph glyph-name="aixin2" unicode="&#xe632;" 
d="M904 713q-65 63 -179 63q-31 0 -64 -11q-32 -11 -62 -30q-30 -20 -48 -35q-19 -15 -39 -34q-18 17 -39 34q-22 18 -48 35q-29 19 -62 30q-32 11 -64 11q-114 0 -179 -63t-65 -176q0 -34 12 -70.5t28 -61.5q14 -24 34 -50q18 -22 28 -33q8 -8 14 -13l319 -307
q9 -10 22 -10t22 10l318 306q117 116 117 229t-65 176zM808 356l-296 -286l-296 286q-96 96 -96 181q0 41 11 73t28 50.5t41.5 30.5t48 16t50.5 4q26 0 57 -13t56 -33q23 -18 44 -37q18 -16 31 -31q9 -11 25 -11q15 0 25 11q12 14 30 31q19 17 44 37q27 20 57 33t57 13
q26 0 50 -4q23 -4 48 -16q24 -12 41 -30q18 -19 28 -51q11 -31 11 -73q1 -85 -95 -181z" />
    <glyph glyph-name="shangjiantou2" unicode="&#xe620;" 
d="M512 630l-448 -447l45 -45l403 403l402 -403l45 45z" />
    <glyph glyph-name="anzhuo1" unicode="&#xe624;" 
d="M828 265q0 -26 18.5 -45t44.5 -19t44.5 19t18.5 45v247q0 26 -18 44.5t-45 18.5q-26 0 -44.5 -18.5t-18.5 -44.5v-247v0zM603 721q0 12 9 21t22 9t22 -9t9 -21q0 -13 -9 -22t-22 -9t-22 9t-9 22v0zM363 721q0 12 9 21t22 9t22 -9t9 -21q0 -13 -9 -22t-22 -9t-22 9t-9 22
v0zM234 122q0 -21 14 -35t35 -14h56v-138q0 -26 18 -44.5t45 -18.5q25 0 44 19t19 44v138h97v-138q0 -26 18 -44.5t45 -18.5q26 0 44.5 19t18.5 44v138h56q20 0 34.5 14t14.5 35v451h-559v-451v0zM792 613q-6 63 -45.5 114t-101.5 80l51 74q7 9 -1 13q-7 4 -13 -3l-54 -77
q-59 21 -116 21q-58 0 -117 -21l-53 77q-7 8 -12 3q-8 -5 -2 -13l52 -74q-63 -30 -102.5 -80.5t-44.5 -113.5h559v0zM70 265q0 -26 18 -45t45 -19q25 0 44 19t19 45v247q0 26 -18.5 44.5t-44.5 18.5q-27 0 -45 -18.5t-18 -44.5v-247v0z" />
    <glyph glyph-name="pingguo1" unicode="&#xe63a;" horiz-adv-x="1064" 
d="M-49 12zM1041 12zM64 48zM531 631q65 6 112 35q26 16 40 29q10 14 27 38q10 14 18 44q7 25 7 44v13q-63 -5 -112 -35q-22 -13 -41 -29q-17 -21 -27 -38q-12 -23 -18 -45q-6 -24 -6 -42v-14zM121 327q-1 -15 1 -38q11 -110 69 -201q56 -88 94 -115q47 -34 88 -34
q30 0 91 23t88 23q25 0 77.5 -23t80.5 -23q42 0 82 25q36 23 72 66q11 13 26 37q7 12 54 99v6q-61 19 -99.5 67t-38.5 106q0 55 30 97q31 42 82 66q-35 42 -87.5 66t-99.5 24q-39 0 -110.5 -20.5t-81.5 -20.5q-8 0 -66.5 19t-105.5 19q-45 0 -93.5 -17t-85.5 -52
q-46 -43 -63 -145q-3 -18 -4 -54zM1000 48z" />
    <glyph glyph-name="pingguo2" unicode="&#xe79b;" 
d="M837 220q42 -59 96 -77q-24 -72 -75 -151q-79 -119 -156 -119q-28 0 -85 19q-52 20 -91 20t-86 -21q-49 -19 -81 -19q-92 0 -181 157q-89 154 -89 304q0 138 68 226q69 88 172 88q22 0 50 -5.5t57 -20.5q32 -18 52.5 -24.5t31.5 -6.5q14 0 41.5 6t54.5 22q30 17 51.5 25
t44.5 8q71 0 129 -39q30 -20 62 -60q-47 -41 -68 -72q-40 -57 -40 -125q0 -74 42 -135zM631 698q-36 -33 -66 -44q-10 -3 -26 -5.5t-36 -4.5q1 90 47 155.5t151 90.5q2 -10 4 -14v-12q0 -37 -18 -83q-18 -45 -56 -83z" />
    <glyph glyph-name="pingguo3" unicode="&#xe625;" 
d="M644 691q22 25 33.5 61t11.5 58v23q-9 -1 -24.5 -3.5t-51 -19t-57.5 -42.5t-33.5 -61.5t-11.5 -58.5v-23q9 1 24.5 4t51.5 19.5t57 42.5v0zM751 359q0 54 27 99t72 70q-29 42 -76 67t-88 25q-34 0 -97 -21.5t-70.5 -21.5t-59 20t-92.5 20q-34 1 -69.5 -11t-72 -44.5
t-52.5 -80.5q-18 -53 -22 -114.5t11 -134t50 -138.5q83 -155 161 -155q25 0 79 19t77 19t69 -19t70 -19q35 0 71 26t64 69q16 24 33.5 59.5t26.5 58.5l10 22v6q-54 21 -88 70t-34 109v0zM751 359z" />
    <glyph glyph-name="anzhuo2" unicode="&#xe626;" 
d="M846 541q-22 0 -37.5 -16t-15.5 -38v-212q0 -22 15.5 -38t37.5 -16t38 15.5t16 38.5v212q-1 22 -16.5 38t-37.5 16v0zM202 541q-22 0 -37.5 -16t-15.5 -38v-212q0 -22 15.5 -38t38 -16t38 15.5t15.5 38.5v212q0 22 -15.5 38t-38.5 16v0zM288 539v-386q0 -18 12.5 -30
t29.5 -12h47v-118q0 -22 15.5 -38.5t38.5 -16.5q22 0 37.5 16t15.5 39v118h83v-118q0 -22 15.5 -38.5t38.5 -16.5q22 0 37.5 16t15.5 39v118h47q18 0 30 12t12 30v386h-475v0v0zM637 740l43 63q5 7 -1 11t-11 -2l-45 -66q-49 19 -99 19q-52 0 -99 -19l-45 66q-5 7 -11 2
q-7 -4 -2 -11l45 -63q-53 -25 -86.5 -69t-38.5 -97h475q-5 53 -38.5 97t-86.5 69v0zM424 639q-11 0 -18.5 7.5t-7.5 18.5t7.5 19t18.5 8t18.5 -8t7.5 -19q0 -10 -7.5 -18t-18.5 -8v0zM628 639q-11 0 -19 7.5t-8 18.5t8 19t19 8t18.5 -8t7.5 -19q0 -10 -8 -18t-18 -8v0z" />
    <glyph glyph-name="angle-up" unicode="&#xe629;" 
d="M512 652l-447 -447l88 -89l359 359l359 -359l88 89l-447 446v1z" />
    <glyph glyph-name="anzhuo3" unicode="&#xe685;" 
d="M891 575q-26 0 -44 -18.5t-18 -44.5v-247q0 -27 18 -45.5t44 -18.5t44 18.5t18 45.5v247q0 26 -18 44.5t-44 18.5v0zM139 575q-25 0 -43.5 -18.5t-18.5 -44.5v-247q0 -27 18.5 -45.5t44 -18.5t44 18.5t18.5 45.5v247q0 26 -18.5 44.5t-44.5 18.5v0zM239 573v-452
q0 -20 14.5 -34t34.5 -14h55v-138q0 -26 18.5 -44.5t44 -18.5t44 18.5t18.5 44.5v138h97v-138q0 -26 18 -44.5t44 -18.5t44 18.5t18 44.5v138h56q20 0 34.5 14t14.5 34v452h-555v0v0zM647 807l51 75q5 8 -2 13t-13 -3l-53 -78q-54 22 -114.5 22t-115.5 -22l-53 78
q-6 8 -13 3t-1 -13l51 -75q-62 -29 -101.5 -80t-44.5 -114h554q-5 63 -44.5 114t-100.5 80v0zM398 690q-13 0 -21.5 9t-8.5 22t9 21.5t21.5 8.5t21.5 -8.5t9 -21.5t-9 -22t-22 -9v0zM636 690q-13 0 -22 9t-9 22t9 21.5t22 8.5t22 -8.5t9 -21.5t-9 -22t-22 -9v0z" />
    <glyph glyph-name="yanjing2" unicode="&#xe62a;" 
d="M397 383q0 -23 9 -44t25 -37t37 -25t44 -9t44 9t37 25t25 37t9 44t-9 44t-25 37t-37 25t-44 9t-44 -9t-37 -25t-25 -37t-9 -44zM397 383zM503.5 663q-55.5 0 -108.5 -15.5t-93 -40t-76 -54.5t-61 -59.5t-43 -54.5t-27 -40t-9 -16q4 -6 11.5 -16t32 -39t50.5 -55.5
t66 -58.5t80 -55.5t90 -39t99 -15.5t98.5 15.5t90 40t78 55t65.5 60.5t48.5 55t31.5 40.5l11 15.5q-4 6 -10.5 15.5t-28.5 38.5t-47 55t-64 58t-80 55t-95 39t-109.5 16zM512 179q-85 0 -144.5 60t-59.5 144.5t59.5 144t144.5 59.5t144.5 -59.5t59.5 -144t-59.5 -144.5
t-144.5 -60zM512 179z" />
    <glyph glyph-name="aixin3" unicode="&#xe62c;" 
d="M710 693q69 0 112 -58q41 -55 41 -130q0 -92 -61 -182q-87 -128 -290 -244q-203 116 -290 243q-61 89 -61 182q0 76 40 131q41 58 109 58q29 0 56 -7.5t44 -17t31.5 -22t19.5 -18.5t8 -10l43 -65l43 66q1 3 5.5 8.5t18.5 17.5t31 22t44 18t56 8zM710 744q-28 0 -54 -5.5
t-45 -14t-36 -19t-28 -20.5t-19.5 -18.5t-12.5 -14.5l-3 -5q-3 4 -8.5 10.5t-24 23t-40 29.5t-56.5 23.5t-73 10.5q-49 0 -88.5 -22t-63 -57.5t-36 -77t-12.5 -83.5q0 -264 402 -483q100 55 175.5 113.5t117.5 107.5t67.5 100.5t33.5 88.5t8 74q0 42 -13 83.5t-37.5 76.5
t-64.5 57t-89 22z" />
    <glyph glyph-name="yanjing3" unicode="&#xe657;" 
d="M515 672q-215 0 -399 -194q-61 -64 -94 -120q5 -6 13.5 -17t36 -42.5t57.5 -60t75.5 -64t91.5 -60.5t104 -42.5t115 -17.5t115 17t105 44t91 59t76 64.5t56.5 59.5t37.5 44l12 16q-4 7 -11.5 18.5t-32.5 44t-53 62t-72.5 65.5t-91 62t-108 44t-124.5 18zM832 243
q-167 -141 -320 -141q-159 0 -320 141q-70 64 -99 99q-3 4 -8 10t-8 10q1 3 6 9.5t7 9.5q38 53 92 102q160 144 330 144t330 -144q35 -32 92 -102q2 -3 7 -9.5t6 -9.5q-3 -7 -16 -20q-59 -66 -99 -99zM512 550q-71 0 -120.5 -49.5t-49.5 -119.5q0 -72 50 -121t120 -49
q71 0 120.5 50t49.5 120q0 69 -50 119t-120 50zM512 256q-50 0 -86 35.5t-36 86t36 86t86 35.5t86 -35.5t36 -85.5q0 -49 -36 -85.5t-86 -36.5z" />
    <glyph glyph-name="dingshi" unicode="&#xe63b;" 
d="M490.5 668q-86.5 0 -160.5 -43t-116.5 -116.5t-42.5 -160.5t42.5 -160.5t116.5 -116.5t160.5 -43t160.5 43t117 116.5t43 160.5t-43 160.5t-117 116.5t-160.5 43zM490.5 68q-115.5 0 -197.5 82t-82 198t82 198t197.5 82t198 -82t82.5 -198t-82.5 -198t-198 -82zM631 368
h-120v160v1q0 8 -6 14t-14.5 6t-14 -6t-5.5 -14v-1v-180q0 -8 5.5 -14t14.5 -6h140h1q8 0 14 6t6 14t-6 14t-14 6h-1z" />
    <glyph glyph-name="aixin4" unicode="&#xe62d;" 
d="M289 849q-115 0 -196 -89t-81 -215q0 -47 14.5 -93.5t28.5 -71.5t39 -64q30 -47 81 -104.5t97.5 -101.5t99.5 -89.5t74.5 -62.5t35.5 -28t30.5 -11t30.5 11t35.5 28t74.5 62.5t99.5 89.5t97.5 101.5t81 104.5q20 30 29.5 47.5t24.5 49t21.5 64t6.5 68.5q0 125 -81 214.5
t-196 89.5q-63 0 -119 -29.5t-96 -83.5l-8 -11l-8 11q-41 54 -97.5 83.5t-118.5 29.5zM512 -34l-6 5q-283 226 -377 374q-38 59 -56 102.5t-18 97.5q0 105 68.5 179.5t165.5 74.5q67 0 124.5 -39.5t86.5 -105.5h1l2 -7q2 -8 9 -8t9 8l2 7h1q30 67 87 106t124 39
q97 0 165.5 -74.5t68.5 -179.5q0 -54 -18 -97.5t-56 -102.5q-94 -148 -377 -374z" />
    <glyph glyph-name="yanjing4" unicode="&#xe62e;" 
d="M515 672q-215 0 -399 -194q-61 -64 -94 -120q5 -6 13.5 -17t36 -42.5t57.5 -60t75.5 -64t91.5 -60.5t104 -42.5t115 -17.5t115 17t105 44t91 59t76 64.5t56.5 59.5t37.5 44l12 16q-4 7 -11.5 18.5t-32.5 44t-53 62t-72.5 65.5t-91 62t-108 44t-124.5 18zM832 243
q-167 -141 -320 -141q-159 0 -320 141q-70 64 -99 99q-3 4 -8 10t-8 10q1 3 6 9.5t7 9.5q38 53 92 102q160 144 330 144t330 -144q35 -32 92 -102q2 -3 7 -9.5t6 -9.5q-3 -7 -16 -20q-59 -66 -99 -99zM512 550q-71 0 -120.5 -49.5t-49.5 -119.5q0 -72 50 -121t120 -49
q71 0 120.5 50t49.5 120q0 69 -50 119t-120 50zM512 256q-50 0 -86 35.5t-36 86t36 86t86 35.5t86 -35.5t36 -85.5q0 -49 -36 -85.5t-86 -36.5z" />
    <glyph glyph-name="sousuo-sousuo" unicode="&#xe62f;" 
d="M691.5 646.5q-91.5 91.5 -221 91.5t-221 -91.5t-91.5 -221t91.5 -221.5t221 -92t221 92t91.5 221.5t-91.5 221zM181.5 136q-56.5 57 -88 131.5t-31.5 157.5q0 111 54.5 205.5t149 149t205.5 54.5t205 -54.5t149 -149t55 -205.5q0 -83 -31.5 -157.5t-88.5 -131.5
t-131.5 -88.5t-157.5 -31.5t-158 31.5t-131.5 88.5zM946 -50q-17 -16 -40 -16t-39 16l-79 79q-17 17 -17 40t16.5 39.5t39.5 16.5t40 -17l79 -79q16 -16 16 -39t-16 -40v0z" />
    <glyph glyph-name="sanjiao-copy-copy-copy" unicode="&#xe630;" 
d="M512 652l-447 -447l88 -89l359 359l359 -359l88 89l-447 446v1z" />
  </font>
</defs>
</svg>
